<svg xmlns="http://www.w3.org/2000/svg" width="1000" height="560"><rect width="1000" height="560" fill="#f7f7f7"/><text x="45" y="65" font-size="30" font-family="Arial">Checkout</text><g font-family="Arial" font-size="18"><rect x="45" y="100" width="280" height="300" fill="white" stroke="#ddd"/><text x="75" y="145">Delivery Address</text><rect x="75" y="170" width="220" height="40" fill="#fafafa" stroke="#ccc"/><text x="88" y="196" fill="#888">Full Name</text><rect x="75" y="225" width="220" height="40" fill="#fafafa" stroke="#ccc"/><text x="88" y="251" fill="#888">Address</text><rect x="75" y="280" width="220" height="40" fill="#fafafa" stroke="#ccc"/><text x="88" y="306" fill="#888">PIN Code</text><rect x="360" y="100" width="280" height="300" fill="white" stroke="#ddd"/><text x="390" y="145">Payment</text><text x="390" y="190">○ Card</text><text x="390" y="230">○ UPI</text><text x="390" y="270">○ Cash on Delivery</text><rect x="390" y="315" width="210" height="45" rx="6" fill="#222"/><text x="435" y="344" fill="white">Place Order</text><rect x="675" y="100" width="280" height="300" fill="white" stroke="#ddd"/><text x="705" y="145">Order Summary</text><text x="705" y="190">Items: ₹1,598</text><text x="705" y="230">Delivery: ₹50</text><text x="705" y="270">Total: ₹1,648</text></g></svg>